{"asset":{"version":"2.0","generator":"VECTARY"},"nodes":[{"translation":[-0.10505048739076606,0.0002968145245796379,0.04039021761209021],"scale":[0.00045315921016892617,0.0004531592101689262,0.00045315921016892633],"rotation":[-0.8245274649570877,0.0066534008947988985,0.005456876877580972,0.5657564973402553],"name":"3D Text - P","mesh":0},{"translation":[-0.09013694316782121,0.00022525923517985547,0.04014370347957823],"scale":[0.00045315921016892617,0.0004531592101689262,0.00045315921016892633],"rotation":[-0.8245274649570877,0.0066534008947988985,0.005456876877580972,0.5657564973402553],"name":"3D Text - h","mesh":1},{"translation":[-0.07615922882268467,0.00015819406407351267,0.03991265819116245],"scale":[0.00045315921016892617,0.0004531592101689262,0.00045315921016892633],"rotation":[-0.8245274649570877,0.0066534008947988985,0.005456876877580972,0.5657564973402553],"name":"3D Text - a","mesh":2},{"translation":[-0.06177333336063174,0.00008917043711578288,0.03967486585372599],"scale":[0.00045315921016892617,0.0004531592101689262,0.00045315921016892633],"rotation":[-0.8245274649570877,0.0066534008947988985,0.005456876877580972,0.5657564973402553],"name":"3D Text - n","mesh":3},{"translation":[-0.047795619015495186,0.000022105266009440074,0.03944382056531022],"scale":[0.00045315921016892617,0.0004531592101689262,0.00045315921016892633],"rotation":[-0.8245274649570877,0.0066534008947988985,0.005456876877580972,0.5657564973402553],"name":"3D Text - t","mesh":4},{"translation":[-0.038417408963416395,-0.000022891451356777283,0.03928880300000562],"scale":[0.00045315921016892617,0.0004531592101689262,0.00045315921016892633],"rotation":[-0.8245274649570877,0.0066534008947988985,0.005456876877580972,0.5657564973402553],"name":"3D Text - o","mesh":5},{"translation":[-0.02415098114533899,-0.00009134187172385566,0.039052985408623994],"scale":[0.00045315921016892617,0.0004531592101689262,0.00045315921016892633],"rotation":[-0.8245274649570877,0.0066534008947988985,0.005456876877580972,0.5657564973402553],"name":"3D Text - m","mesh":6},{"translation":[-0.004120239505442456,-0.00018744951008992317,0.038721886320096544],"scale":[0.00045315921016892617,0.0004531592101689262,0.00045315921016892633],"rotation":[-0.8245274649570877,0.0066534008947988985,0.005456876877580972,0.5657564973402553],"name":"3D Text - .","mesh":7},{"translation":[0.0015942961313868765,-0.00021486789200946888,0.03862742763380691],"scale":[0.00045315921016892617,0.0004531592101689262,0.00045315921016892633],"rotation":[-0.8245274649570877,0.0066534008947988985,0.005456876877580972,0.5657564973402553],"name":"3D Text - X","mesh":8}],"materials":[{"pbrMetallicRoughness":{"baseColorFactor":[1,1,1,1],"metallicFactor":0,"roughnessFactor":0.2},"name":"Urban Charm","emissiveFactor":[0,0,0],"extensions":{},"alphaMode":"OPAQUE","doubleSided":false}],"meshes":[{"primitives":[{"mode":4,"attributes":{"POSITION":1,"NORMAL":2,"TEXCOORD_0":3},"material":0,"indices":0}]},{"primitives":[{"mode":4,"attributes":{"POSITION":5,"NORMAL":6,"TEXCOORD_0":7},"material":0,"indices":4}]},{"primitives":[{"mode":4,"attributes":{"POSITION":9,"NORMAL":10,"TEXCOORD_0":11},"material":0,"indices":8}]},{"primitives":[{"mode":4,"attributes":{"POSITION":13,"NORMAL":14,"TEXCOORD_0":15},"material":0,"indices":12}]},{"primitives":[{"mode":4,"attributes":{"POSITION":17,"NORMAL":18,"TEXCOORD_0":19},"material":0,"indices":16}]},{"primitives":[{"mode":4,"attributes":{"POSITION":21,"NORMAL":22,"TEXCOORD_0":23},"material":0,"indices":20}]},{"primitives":[{"mode":4,"attributes":{"POSITION":25,"NORMAL":26,"TEXCOORD_0":27},"material":0,"indices":24}]},{"primitives":[{"mode":4,"attributes":{"POSITION":29,"NORMAL":30,"TEXCOORD_0":31},"material":0,"indices":28}]},{"primitives":[{"mode":4,"attributes":{"POSITION":33,"NORMAL":34,"TEXCOORD_0":35},"material":0,"indices":32}]}],"accessors":[{"bufferView":0,"byteOffset":0,"componentType":5125,"count":1056,"type":"SCALAR"},{"bufferView":1,"byteOffset":0,"componentType":5126,"count":705,"max":[35.49800109863281,2.1526840487446795e-15,35.15599822998047],"min":[3.9790000915527344,-15,0],"type":"VEC3"},{"bufferView":2,"byteOffset":0,"componentType":5126,"count":705,"type":"VEC3"},{"bufferView":3,"byteOffset":0,"componentType":5126,"count":705,"type":"VEC2"},{"bufferView":4,"byteOffset":0,"componentType":5125,"count":1740,"type":"SCALAR"},{"bufferView":5,"byteOffset":0,"componentType":5126,"count":1162,"max":[32.275001525878906,2.3619763608905605e-15,38.57400131225586],"min":[3.441999912261963,-15,-6.00600004196167],"type":"VEC3"},{"bufferView":6,"byteOffset":0,"componentType":5126,"count":1162,"type":"VEC3"},{"bufferView":7,"byteOffset":0,"componentType":5126,"count":1162,"type":"VEC2"},{"bufferView":8,"byteOffset":0,"componentType":5125,"count":2340,"type":"SCALAR"},{"bufferView":9,"byteOffset":0,"componentType":5126,"count":1560,"max":[31.836000442504883,1.7685124672757284e-15,28.881999969482422],"min":[1.8550000190734863,-15,-0.5619999766349792],"type":"VEC3"},{"bufferView":10,"byteOffset":0,"componentType":5126,"count":1560,"type":"VEC3"},{"bufferView":11,"byteOffset":0,"componentType":5126,"count":1560,"type":"VEC2"},{"bufferView":12,"byteOffset":0,"componentType":5125,"count":1860,"type":"SCALAR"},{"bufferView":13,"byteOffset":0,"componentType":5126,"count":1242,"max":[32.275001525878906,1.7685124672757284e-15,28.881999969482422],"min":[3.441999912261963,-15,-6.00600004196167],"type":"VEC3"},{"bufferView":14,"byteOffset":0,"componentType":5126,"count":1242,"type":"VEC3"},{"bufferView":15,"byteOffset":0,"componentType":5126,"count":1242,"type":"VEC2"},{"bufferView":16,"byteOffset":0,"componentType":5125,"count":132,"type":"SCALAR"},{"bufferView":17,"byteOffset":0,"componentType":5126,"count":76,"max":[22.60700035095215,2.3619763608905605e-15,38.57400131225586],"min":[0.6589999794960022,-15,0],"type":"VEC3"},{"bufferView":18,"byteOffset":0,"componentType":5126,"count":76,"type":"VEC3"},{"bufferView":19,"byteOffset":0,"componentType":5126,"count":76,"type":"VEC2"},{"bufferView":20,"byteOffset":0,"componentType":5125,"count":2880,"type":"SCALAR"},{"bufferView":21,"byteOffset":0,"componentType":5126,"count":1920,"max":[33.22800064086914,1.7685124672757284e-15,28.881999969482422],"min":[1.7580000162124634,-15,-0.5619999766349792],"type":"VEC3"},{"bufferView":22,"byteOffset":0,"componentType":5126,"count":1920,"type":"VEC3"},{"bufferView":23,"byteOffset":0,"componentType":5126,"count":1920,"type":"VEC2"},{"bufferView":24,"byteOffset":0,"componentType":5125,"count":2856,"type":"SCALAR"},{"bufferView":25,"byteOffset":0,"componentType":5126,"count":1906,"max":[47.06999969482422,1.7685124672757284e-15,28.881999969482422],"min":[3.441999912261963,-15,-6.00600004196167],"type":"VEC3"},{"bufferView":26,"byteOffset":0,"componentType":5126,"count":1906,"type":"VEC3"},{"bufferView":27,"byteOffset":0,"componentType":5126,"count":1906,"type":"VEC2"},{"bufferView":28,"byteOffset":0,"componentType":5125,"count":948,"type":"SCALAR"},{"bufferView":29,"byteOffset":0,"componentType":5126,"count":626,"max":[11.449999809265137,4.962880916806417e-16,8.104999542236328],"min":[2.562999963760376,-15,-0.8059999942779541],"type":"VEC3"},{"bufferView":30,"byteOffset":0,"componentType":5126,"count":626,"type":"VEC3"},{"bufferView":31,"byteOffset":0,"componentType":5126,"count":626,"type":"VEC2"},{"bufferView":32,"byteOffset":0,"componentType":5125,"count":132,"type":"SCALAR"},{"bufferView":33,"byteOffset":0,"componentType":5126,"count":96,"max":[33.715999603271484,2.1526840487446795e-15,35.15599822998047],"min":[0.2930000126361847,-15,0],"type":"VEC3"},{"bufferView":34,"byteOffset":0,"componentType":5126,"count":96,"type":"VEC3"},{"bufferView":35,"byteOffset":0,"componentType":5126,"count":96,"type":"VEC2"}],"bufferViews":[{"buffer":0,"byteOffset":0,"byteLength":4224,"target":34963},{"buffer":0,"byteOffset":4224,"byteLength":8460,"target":34962},{"buffer":0,"byteOffset":12684,"byteLength":8460,"target":34962},{"buffer":0,"byteOffset":21144,"byteLength":5640,"target":34962},{"buffer":0,"byteOffset":26784,"byteLength":6960,"target":34963},{"buffer":0,"byteOffset":33744,"byteLength":13944,"target":34962},{"buffer":0,"byteOffset":47688,"byteLength":13944,"target":34962},{"buffer":0,"byteOffset":61632,"byteLength":9296,"target":34962},{"buffer":0,"byteOffset":70928,"byteLength":9360,"target":34963},{"buffer":0,"byteOffset":80288,"byteLength":18720,"target":34962},{"buffer":0,"byteOffset":99008,"byteLength":18720,"target":34962},{"buffer":0,"byteOffset":117728,"byteLength":12480,"target":34962},{"buffer":0,"byteOffset":130208,"byteLength":7440,"target":34963},{"buffer":0,"byteOffset":137648,"byteLength":14904,"target":34962},{"buffer":0,"byteOffset":152552,"byteLength":14904,"target":34962},{"buffer":0,"byteOffset":167456,"byteLength":9936,"target":34962},{"buffer":0,"byteOffset":177392,"byteLength":528,"target":34963},{"buffer":0,"byteOffset":177920,"byteLength":912,"target":34962},{"buffer":0,"byteOffset":178832,"byteLength":912,"target":34962},{"buffer":0,"byteOffset":179744,"byteLength":608,"target":34962},{"buffer":0,"byteOffset":180352,"byteLength":11520,"target":34963},{"buffer":0,"byteOffset":191872,"byteLength":23040,"target":34962},{"buffer":0,"byteOffset":214912,"byteLength":23040,"target":34962},{"buffer":0,"byteOffset":237952,"byteLength":15360,"target":34962},{"buffer":0,"byteOffset":253312,"byteLength":11424,"target":34963},{"buffer":0,"byteOffset":264736,"byteLength":22872,"target":34962},{"buffer":0,"byteOffset":287608,"byteLength":22872,"target":34962},{"buffer":0,"byteOffset":310480,"byteLength":15248,"target":34962},{"buffer":0,"byteOffset":325728,"byteLength":3792,"target":34963},{"buffer":0,"byteOffset":329520,"byteLength":7512,"target":34962},{"buffer":0,"byteOffset":337032,"byteLength":7512,"target":34962},{"buffer":0,"byteOffset":344544,"byteLength":5008,"target":34962},{"buffer":0,"byteOffset":349552,"byteLength":528,"target":34963},{"buffer":0,"byteOffset":350080,"byteLength":1152,"target":34962},{"buffer":0,"byteOffset":351232,"byteLength":1152,"target":34962},{"buffer":0,"byteOffset":352384,"byteLength":768,"target":34962}],"scene":0,"scenes":[{"nodes":[0,1,2,3,4,5,6,7,8],"name":"Project Name"}],"extensionsUsed":["KHR_texture_transform"],"buffers":[{"byteLength":353152,"uri":"ProjectName.bin"}]}